<svg width="1200" height="675" viewBox="0 0 1200 675" fill="none" xmlns="http://www.w3.org/2000/svg">
  <defs>
    <filter id="shadow" x="-20%" y="-20%" width="140%" height="160%">
      <feDropShadow dx="0" dy="18" stdDeviation="24" flood-color="#111214" flood-opacity="0.14"/>
    </filter>
    <filter id="softShadow" x="-20%" y="-20%" width="140%" height="160%">
      <feDropShadow dx="0" dy="9" stdDeviation="13" flood-color="#111214" flood-opacity="0.12"/>
    </filter>
  </defs>

  <rect width="1200" height="675" rx="30" fill="#F7F7F5"/>
  <path d="M0 646C217 611 356 659 564 627C780 594 986 588 1200 627V675H0V646Z" fill="#F0F0ED"/>

  <g transform="translate(60 52)">
    <rect width="38" height="38" rx="11" fill="#111214"/>
    <path d="M12 10V28M26 10V28M12 19H26" stroke="#F7F7F5" stroke-width="4.5" stroke-linecap="round"/>
    <path d="M12 19H26" stroke="#F04E32" stroke-width="4.5" stroke-linecap="round"/>
    <text x="50" y="27" fill="#111214" font-family="Pretendard, Apple SD Gothic Neo, sans-serif" font-size="22" font-weight="760" letter-spacing="-1">here</text>
  </g>

  <g font-family="Pretendard, Apple SD Gothic Neo, sans-serif">
    <text x="60" y="177" fill="#6A6B70" font-size="13" font-weight="720" letter-spacing="1.5">INTERRUPTED-WORK RECALL</text>
    <text x="60" y="237" fill="#111214" font-size="51" font-weight="760" letter-spacing="-3.1">다시 돌아온 창에서,</text>
    <text x="60" y="297" fill="#F04E32" font-size="51" font-weight="760" letter-spacing="-3.1">이유도 함께.</text>
    <text x="60" y="355" fill="#64666B" font-size="17" font-weight="560" letter-spacing="-0.5">잠깐 다른 일을 보고 돌아온 순간,</text>
    <text x="60" y="382" fill="#64666B" font-size="17" font-weight="560" letter-spacing="-0.5">왜 열었는지와 다음 한 단계를 복원합니다.</text>

    <g transform="translate(60 454)">
      <rect width="242" height="54" rx="12" fill="#111214"/>
      <text x="20" y="34" fill="#FFFFFF" font-size="14" font-weight="690">Windows용 Here 받기</text>
      <path d="M214 21V34M208 29L214 35L220 29" stroke="#C8C9CD" stroke-width="1.6" stroke-linecap="round" stroke-linejoin="round"/>
    </g>
    <text x="60" y="555" fill="#929399" font-size="12" font-weight="580">최근 10분  ·  Ctrl + Shift + Space  ·  사내 vLLM</text>
  </g>

  <g transform="translate(570 42)" filter="url(#shadow)">
    <rect width="570" height="591" rx="22" fill="#18191B"/>
    <rect x="1" y="1" width="568" height="589" rx="21" stroke="#2E2F33" stroke-width="2"/>
    <circle cx="22" cy="22" r="4" fill="#F04E32"/>
    <circle cx="36" cy="22" r="4" fill="#4D4E53"/>
    <circle cx="50" cy="22" r="4" fill="#4D4E53"/>
    <text x="285" y="26" fill="#A1A2A7" font-family="Pretendard, Apple SD Gothic Neo, sans-serif" font-size="10" font-weight="600" text-anchor="middle">Q3_예산검토.xlsx</text>

    <rect x="14" y="44" width="542" height="411" rx="13" fill="#EDEDEA"/>
    <g transform="translate(29 59)">
      <rect width="512" height="381" rx="11" fill="#FFFFFF"/>
      <text x="20" y="35" fill="#111214" font-family="Pretendard, Apple SD Gothic Neo, sans-serif" font-size="16" font-weight="740">Q3 예산 검토</text>
      <text x="20" y="51" fill="#93949A" font-family="Pretendard, Apple SD Gothic Neo, sans-serif" font-size="8">계획과 실제 비용의 차이</text>
      <g transform="translate(20 78)" font-family="Pretendard, Apple SD Gothic Neo, sans-serif" font-size="8.5" fill="#4B4C50">
        <rect width="472" height="39" fill="#ECECE9"/><rect y="39" width="472" height="39" fill="#FFFFFF"/><rect y="78" width="472" height="39" fill="#FFFFFF"/><rect y="117" width="472" height="39" fill="#F2F2EF"/>
        <path d="M0 0H472V156H0V0ZM118 0V156M236 0V156M354 0V156M0 39H472M0 78H472M0 117H472" fill="none" stroke="#D6D6D2"/>
        <text x="13" y="25" font-weight="700">구분</text><text x="131" y="25" font-weight="700">계획</text><text x="249" y="25" font-weight="700">실제</text><text x="367" y="25" font-weight="700">증감</text>
        <text x="13" y="64">인건비</text><text x="131" y="64">120</text><text x="249" y="64">126</text><text x="367" y="64">+6</text>
        <text x="13" y="103">외주비</text><text x="131" y="103">80</text><text x="249" y="103">75</text><text x="367" y="103">−5</text>
        <rect x="354" y="117" width="118" height="39" fill="#FFF0EC"/>
        <text x="13" y="142" font-weight="700">합계</text><text x="131" y="142" font-weight="700">200</text><text x="249" y="142" font-weight="700">201</text><text x="367" y="142" fill="#F04E32" font-weight="700">+1</text>
      </g>
      <rect x="20" y="330" width="472" height="35" rx="7" fill="#202124"/>
      <text x="34" y="352" fill="#F4F4F3" font-family="Pretendard, Apple SD Gothic Neo, sans-serif" font-size="9" font-weight="650">Microsoft Excel  ·  Q3_예산검토.xlsx</text>
    </g>

    <g transform="translate(166 177)" filter="url(#softShadow)">
      <rect width="304" height="76" rx="13" fill="#FFFFFF" stroke="#D3D3CF"/>
      <rect x="14" y="15" width="46" height="46" rx="10" fill="#303136"/>
      <text x="37" y="44" fill="#FFFFFF" font-family="Pretendard, Apple SD Gothic Neo, sans-serif" font-size="17" font-weight="760" text-anchor="middle">O</text>
      <text x="74" y="30" fill="#929399" font-family="Pretendard, Apple SD Gothic Neo, sans-serif" font-size="9" font-weight="680">잠깐 다른 일</text>
      <text x="74" y="50" fill="#111214" font-family="Pretendard, Apple SD Gothic Neo, sans-serif" font-size="13" font-weight="700">Outlook · 회의 일정</text>
      <text x="274" y="43" fill="#929399" font-family="Pretendard, Apple SD Gothic Neo, sans-serif" font-size="10" text-anchor="end">48초</text>
    </g>

    <g transform="translate(244 269)">
      <rect width="283" height="38" rx="19" fill="#111214"/>
      <text x="141.5" y="24" fill="#FFFFFF" font-family="Pretendard, Apple SD Gothic Neo, sans-serif" font-size="11" font-weight="650" text-anchor="middle">어… 내가 뭐 하던 중이었지?</text>
    </g>

    <g transform="translate(45 301)" filter="url(#softShadow)">
      <rect width="480" height="139" rx="14" fill="#FAFAF8" stroke="#D1D1CD"/>
      <g transform="translate(16 15)">
        <rect width="24" height="24" rx="7" fill="#111214"/>
        <path d="M7.5 6.5V17.5M16.5 6.5V17.5M7.5 12H16.5" stroke="#F7F7F5" stroke-width="2.6" stroke-linecap="round"/>
        <path d="M7.5 12H16.5" stroke="#F04E32" stroke-width="2.6" stroke-linecap="round"/>
      </g>
      <text x="49" y="33" fill="#111214" font-family="Pretendard, Apple SD Gothic Neo, sans-serif" font-size="11" font-weight="760">here</text>
      <text x="16" y="67" fill="#111214" font-family="Pretendard, Apple SD Gothic Neo, sans-serif" font-size="18" font-weight="750" letter-spacing="-0.8">비용 증감을 확인하던 중이었어요.</text>
      <text x="16" y="90" fill="#797A7F" font-family="Pretendard, Apple SD Gothic Neo, sans-serif" font-size="9.5" font-weight="600">Teams 요청  →  Excel  →  Outlook  →  지금</text>
      <rect x="16" y="103" width="448" height="25" rx="7" fill="#111214"/>
      <text x="29" y="120" fill="#FFFFFF" font-family="Pretendard, Apple SD Gothic Neo, sans-serif" font-size="9" font-weight="670">합계 셀로 돌아가기</text>
      <path d="M439 115H452M448 111L452 115L448 119" stroke="#C8C9CD" stroke-width="1.3" stroke-linecap="round" stroke-linejoin="round"/>
    </g>

    <g transform="translate(26 484)" font-family="Pretendard, Apple SD Gothic Neo, sans-serif">
      <path d="M9 15H509" stroke="#3B3C40"/>
      <path d="M9 15H509" stroke="#F04E32" stroke-width="1.5"/>
      <circle cx="9" cy="15" r="4" fill="#F04E32" stroke="#18191B" stroke-width="2"/>
      <circle cx="259" cy="15" r="4" fill="#F04E32" stroke="#18191B" stroke-width="2"/>
      <circle cx="509" cy="15" r="4" fill="#F04E32" stroke="#18191B" stroke-width="2"/>
      <text x="0" y="41" fill="#C3C4C8" font-size="9" font-weight="650">14:33</text>
      <text x="34" y="41" fill="#85868C" font-size="9">Excel</text>
      <text x="224" y="41" fill="#C3C4C8" font-size="9" font-weight="650">14:34</text>
      <text x="259" y="41" fill="#85868C" font-size="9">Outlook</text>
      <text x="453" y="41" fill="#C3C4C8" font-size="9" font-weight="650">14:36</text>
      <text x="488" y="41" fill="#85868C" font-size="9">복귀</text>
    </g>
    <text x="285" y="568" fill="#8E8F94" font-family="Pretendard, Apple SD Gothic Neo, sans-serif" font-size="10" text-anchor="middle">Excel → Outlook → Excel. 돌아온 순간에만 나타납니다.</text>
  </g>
</svg>
